<mxfile host="app.diagrams.net" agent="Mozilla/5.0 (Windows NT 10.0; Win64; x64) AppleWebKit/537.36 (KHTML, like Gecko) Chrome/141.0.0.0 Safari/537.36" version="28.2.8">
  <diagram name="Page-1" id="5RMKCjs3eDe3yt776Ngc">
    <mxGraphModel dx="1042" dy="1674" grid="1" gridSize="10" guides="1" tooltips="1" connect="1" arrows="1" fold="1" page="1" pageScale="1" pageWidth="850" pageHeight="1100" math="0" shadow="0">
      <root>
        <mxCell id="0" />
        <mxCell id="1" parent="0" />
        <mxCell id="5VEAs7Z4zmUbIyA-DY4z-10" style="edgeStyle=orthogonalEdgeStyle;rounded=0;orthogonalLoop=1;jettySize=auto;html=1;entryX=0;entryY=0.5;entryDx=0;entryDy=0;endArrow=diamondThin;endFill=1;endSize=15;" edge="1" parent="1" source="5VEAs7Z4zmUbIyA-DY4z-1" target="5VEAs7Z4zmUbIyA-DY4z-5">
          <mxGeometry relative="1" as="geometry" />
        </mxCell>
        <mxCell id="5VEAs7Z4zmUbIyA-DY4z-1" value="Task" style="swimlane;fontStyle=1;align=center;verticalAlign=top;childLayout=stackLayout;horizontal=1;startSize=26;horizontalStack=0;resizeParent=1;resizeParentMax=0;resizeLast=0;collapsible=1;marginBottom=0;whiteSpace=wrap;html=1;" vertex="1" parent="1">
          <mxGeometry x="140" y="495" width="160" height="220" as="geometry" />
        </mxCell>
        <mxCell id="5VEAs7Z4zmUbIyA-DY4z-2" value="- id :number&lt;div&gt;- checked : boolean&lt;/div&gt;&lt;div&gt;- title : string&lt;/div&gt;&lt;div&gt;- description : string&lt;/div&gt;&lt;div&gt;- deadline : Date&lt;/div&gt;" style="text;strokeColor=none;fillColor=none;align=left;verticalAlign=top;spacingLeft=4;spacingRight=4;overflow=hidden;rotatable=0;points=[[0,0.5],[1,0.5]];portConstraint=eastwest;whiteSpace=wrap;html=1;" vertex="1" parent="5VEAs7Z4zmUbIyA-DY4z-1">
          <mxGeometry y="26" width="160" height="84" as="geometry" />
        </mxCell>
        <mxCell id="5VEAs7Z4zmUbIyA-DY4z-3" value="" style="line;strokeWidth=1;fillColor=none;align=left;verticalAlign=middle;spacingTop=-1;spacingLeft=3;spacingRight=3;rotatable=0;labelPosition=right;points=[];portConstraint=eastwest;strokeColor=inherit;" vertex="1" parent="5VEAs7Z4zmUbIyA-DY4z-1">
          <mxGeometry y="110" width="160" height="8" as="geometry" />
        </mxCell>
        <mxCell id="5VEAs7Z4zmUbIyA-DY4z-4" value="+ getID() : number&lt;div&gt;+ isChecked : boolean&amp;nbsp;&lt;/div&gt;&lt;div&gt;+ render():&amp;nbsp;&lt;span style=&quot;background-color: transparent; color: light-dark(rgb(0, 0, 0), rgb(255, 255, 255));&quot;&gt;JSX.element&lt;/span&gt;&lt;/div&gt;&lt;div&gt;+ Task()&amp;nbsp;&lt;/div&gt;&lt;div&gt;+ isExceedDeadline(): boolean&lt;/div&gt;" style="text;strokeColor=none;fillColor=none;align=left;verticalAlign=top;spacingLeft=4;spacingRight=4;overflow=hidden;rotatable=0;points=[[0,0.5],[1,0.5]];portConstraint=eastwest;whiteSpace=wrap;html=1;" vertex="1" parent="5VEAs7Z4zmUbIyA-DY4z-1">
          <mxGeometry y="118" width="160" height="102" as="geometry" />
        </mxCell>
        <mxCell id="5VEAs7Z4zmUbIyA-DY4z-19" style="edgeStyle=orthogonalEdgeStyle;rounded=0;orthogonalLoop=1;jettySize=auto;html=1;entryX=0.5;entryY=1;entryDx=0;entryDy=0;endArrow=diamondThin;endFill=0;endSize=15;" edge="1" parent="1" source="5VEAs7Z4zmUbIyA-DY4z-5" target="5VEAs7Z4zmUbIyA-DY4z-12">
          <mxGeometry relative="1" as="geometry" />
        </mxCell>
        <mxCell id="5VEAs7Z4zmUbIyA-DY4z-5" value="TaskManager" style="swimlane;fontStyle=1;align=center;verticalAlign=top;childLayout=stackLayout;horizontal=1;startSize=26;horizontalStack=0;resizeParent=1;resizeParentMax=0;resizeLast=0;collapsible=1;marginBottom=0;whiteSpace=wrap;html=1;" vertex="1" parent="1">
          <mxGeometry x="460" y="500" width="160" height="250" as="geometry" />
        </mxCell>
        <mxCell id="5VEAs7Z4zmUbIyA-DY4z-6" value="- tasks : Task[]&lt;div&gt;- totalTasks: number&lt;/div&gt;&lt;div&gt;- ongoingTasks: number&lt;/div&gt;&lt;div&gt;- doneTasks: number&lt;/div&gt;&lt;div&gt;- missedTasks: number&lt;/div&gt;&lt;div&gt;- misStreak: number&lt;/div&gt;" style="text;strokeColor=none;fillColor=none;align=left;verticalAlign=top;spacingLeft=4;spacingRight=4;overflow=hidden;rotatable=0;points=[[0,0.5],[1,0.5]];portConstraint=eastwest;whiteSpace=wrap;html=1;" vertex="1" parent="5VEAs7Z4zmUbIyA-DY4z-5">
          <mxGeometry y="26" width="160" height="104" as="geometry" />
        </mxCell>
        <mxCell id="5VEAs7Z4zmUbIyA-DY4z-7" value="" style="line;strokeWidth=1;fillColor=none;align=left;verticalAlign=middle;spacingTop=-1;spacingLeft=3;spacingRight=3;rotatable=0;labelPosition=right;points=[];portConstraint=eastwest;strokeColor=inherit;" vertex="1" parent="5VEAs7Z4zmUbIyA-DY4z-5">
          <mxGeometry y="130" width="160" height="8" as="geometry" />
        </mxCell>
        <mxCell id="5VEAs7Z4zmUbIyA-DY4z-8" value="+ render(): JSX.element&lt;div&gt;+TaskManager()&lt;/div&gt;&lt;div&gt;+ update()&amp;nbsp;&lt;/div&gt;&lt;div&gt;+ getmisStreak(): number&lt;/div&gt;&lt;div&gt;--readfile(filename: string)&lt;/div&gt;&lt;div&gt;- save(filename: string)&lt;/div&gt;" style="text;strokeColor=none;fillColor=none;align=left;verticalAlign=top;spacingLeft=4;spacingRight=4;overflow=hidden;rotatable=0;points=[[0,0.5],[1,0.5]];portConstraint=eastwest;whiteSpace=wrap;html=1;" vertex="1" parent="5VEAs7Z4zmUbIyA-DY4z-5">
          <mxGeometry y="138" width="160" height="112" as="geometry" />
        </mxCell>
        <mxCell id="5VEAs7Z4zmUbIyA-DY4z-44" style="edgeStyle=orthogonalEdgeStyle;rounded=0;orthogonalLoop=1;jettySize=auto;html=1;entryX=0;entryY=1;entryDx=0;entryDy=0;endArrow=diamondThin;endFill=0;endSize=15;" edge="1" parent="1" source="5VEAs7Z4zmUbIyA-DY4z-12" target="5VEAs7Z4zmUbIyA-DY4z-20">
          <mxGeometry relative="1" as="geometry" />
        </mxCell>
        <mxCell id="5VEAs7Z4zmUbIyA-DY4z-12" value="Homepage" style="swimlane;fontStyle=1;align=center;verticalAlign=top;childLayout=stackLayout;horizontal=1;startSize=26;horizontalStack=0;resizeParent=1;resizeParentMax=0;resizeLast=0;collapsible=1;marginBottom=0;whiteSpace=wrap;html=1;" vertex="1" parent="1">
          <mxGeometry x="460" y="220" width="160" height="86" as="geometry" />
        </mxCell>
        <mxCell id="5VEAs7Z4zmUbIyA-DY4z-13" value="-" style="text;strokeColor=none;fillColor=none;align=left;verticalAlign=top;spacingLeft=4;spacingRight=4;overflow=hidden;rotatable=0;points=[[0,0.5],[1,0.5]];portConstraint=eastwest;whiteSpace=wrap;html=1;" vertex="1" parent="5VEAs7Z4zmUbIyA-DY4z-12">
          <mxGeometry y="26" width="160" height="26" as="geometry" />
        </mxCell>
        <mxCell id="5VEAs7Z4zmUbIyA-DY4z-14" value="" style="line;strokeWidth=1;fillColor=none;align=left;verticalAlign=middle;spacingTop=-1;spacingLeft=3;spacingRight=3;rotatable=0;labelPosition=right;points=[];portConstraint=eastwest;strokeColor=inherit;" vertex="1" parent="5VEAs7Z4zmUbIyA-DY4z-12">
          <mxGeometry y="52" width="160" height="8" as="geometry" />
        </mxCell>
        <mxCell id="5VEAs7Z4zmUbIyA-DY4z-15" value="+render(): JSX.element" style="text;strokeColor=none;fillColor=none;align=left;verticalAlign=top;spacingLeft=4;spacingRight=4;overflow=hidden;rotatable=0;points=[[0,0.5],[1,0.5]];portConstraint=eastwest;whiteSpace=wrap;html=1;" vertex="1" parent="5VEAs7Z4zmUbIyA-DY4z-12">
          <mxGeometry y="60" width="160" height="26" as="geometry" />
        </mxCell>
        <mxCell id="5VEAs7Z4zmUbIyA-DY4z-52" style="edgeStyle=orthogonalEdgeStyle;rounded=0;orthogonalLoop=1;jettySize=auto;html=1;endArrow=diamondThin;endFill=1;endSize=15;" edge="1" parent="1" source="5VEAs7Z4zmUbIyA-DY4z-20" target="5VEAs7Z4zmUbIyA-DY4z-36">
          <mxGeometry relative="1" as="geometry" />
        </mxCell>
        <mxCell id="5VEAs7Z4zmUbIyA-DY4z-20" value="Routers" style="swimlane;fontStyle=1;align=center;verticalAlign=top;childLayout=stackLayout;horizontal=1;startSize=26;horizontalStack=0;resizeParent=1;resizeParentMax=0;resizeLast=0;collapsible=1;marginBottom=0;whiteSpace=wrap;html=1;" vertex="1" parent="1">
          <mxGeometry x="760" y="-10" width="160" height="104" as="geometry" />
        </mxCell>
        <mxCell id="5VEAs7Z4zmUbIyA-DY4z-21" value="+ home: HashRouter&lt;div&gt;+ about:&amp;nbsp;&lt;span style=&quot;background-color: transparent; color: light-dark(rgb(0, 0, 0), rgb(255, 255, 255));&quot;&gt;HashRouter&lt;/span&gt;&lt;/div&gt;" style="text;strokeColor=none;fillColor=none;align=left;verticalAlign=top;spacingLeft=4;spacingRight=4;overflow=hidden;rotatable=0;points=[[0,0.5],[1,0.5]];portConstraint=eastwest;whiteSpace=wrap;html=1;" vertex="1" parent="5VEAs7Z4zmUbIyA-DY4z-20">
          <mxGeometry y="26" width="160" height="44" as="geometry" />
        </mxCell>
        <mxCell id="5VEAs7Z4zmUbIyA-DY4z-22" value="" style="line;strokeWidth=1;fillColor=none;align=left;verticalAlign=middle;spacingTop=-1;spacingLeft=3;spacingRight=3;rotatable=0;labelPosition=right;points=[];portConstraint=eastwest;strokeColor=inherit;" vertex="1" parent="5VEAs7Z4zmUbIyA-DY4z-20">
          <mxGeometry y="70" width="160" height="8" as="geometry" />
        </mxCell>
        <mxCell id="5VEAs7Z4zmUbIyA-DY4z-23" value="....." style="text;strokeColor=none;fillColor=none;align=left;verticalAlign=top;spacingLeft=4;spacingRight=4;overflow=hidden;rotatable=0;points=[[0,0.5],[1,0.5]];portConstraint=eastwest;whiteSpace=wrap;html=1;" vertex="1" parent="5VEAs7Z4zmUbIyA-DY4z-20">
          <mxGeometry y="78" width="160" height="26" as="geometry" />
        </mxCell>
        <mxCell id="5VEAs7Z4zmUbIyA-DY4z-35" style="edgeStyle=orthogonalEdgeStyle;rounded=0;orthogonalLoop=1;jettySize=auto;html=1;entryX=1;entryY=0.5;entryDx=0;entryDy=0;endArrow=diamondThin;endFill=0;endSize=15;" edge="1" parent="1" source="5VEAs7Z4zmUbIyA-DY4z-25" target="5VEAs7Z4zmUbIyA-DY4z-12">
          <mxGeometry relative="1" as="geometry" />
        </mxCell>
        <mxCell id="5VEAs7Z4zmUbIyA-DY4z-54" style="edgeStyle=orthogonalEdgeStyle;rounded=0;orthogonalLoop=1;jettySize=auto;html=1;entryX=1;entryY=0.5;entryDx=0;entryDy=0;endArrow=none;endFill=0;" edge="1" parent="1" source="5VEAs7Z4zmUbIyA-DY4z-25" target="5VEAs7Z4zmUbIyA-DY4z-5">
          <mxGeometry relative="1" as="geometry" />
        </mxCell>
        <mxCell id="5VEAs7Z4zmUbIyA-DY4z-25" value="StudyBeast" style="swimlane;fontStyle=1;align=center;verticalAlign=top;childLayout=stackLayout;horizontal=1;startSize=26;horizontalStack=0;resizeParent=1;resizeParentMax=0;resizeLast=0;collapsible=1;marginBottom=0;whiteSpace=wrap;html=1;" vertex="1" parent="1">
          <mxGeometry x="780" y="500" width="160" height="160" as="geometry" />
        </mxCell>
        <mxCell id="5VEAs7Z4zmUbIyA-DY4z-26" value="-&amp;nbsp; beastWidth: number&lt;div&gt;- beastHeight: number&lt;/div&gt;&lt;div&gt;- level : number&lt;/div&gt;&lt;div&gt;- color : string&lt;/div&gt;&lt;div&gt;&lt;br&gt;&lt;/div&gt;" style="text;strokeColor=none;fillColor=none;align=left;verticalAlign=top;spacingLeft=4;spacingRight=4;overflow=hidden;rotatable=0;points=[[0,0.5],[1,0.5]];portConstraint=eastwest;whiteSpace=wrap;html=1;" vertex="1" parent="5VEAs7Z4zmUbIyA-DY4z-25">
          <mxGeometry y="26" width="160" height="74" as="geometry" />
        </mxCell>
        <mxCell id="5VEAs7Z4zmUbIyA-DY4z-27" value="" style="line;strokeWidth=1;fillColor=none;align=left;verticalAlign=middle;spacingTop=-1;spacingLeft=3;spacingRight=3;rotatable=0;labelPosition=right;points=[];portConstraint=eastwest;strokeColor=inherit;" vertex="1" parent="5VEAs7Z4zmUbIyA-DY4z-25">
          <mxGeometry y="100" width="160" height="8" as="geometry" />
        </mxCell>
        <mxCell id="5VEAs7Z4zmUbIyA-DY4z-28" value="+ render(): JSX element&lt;div&gt;+ eat()&lt;/div&gt;&lt;div&gt;+ die()&lt;/div&gt;" style="text;strokeColor=none;fillColor=none;align=left;verticalAlign=top;spacingLeft=4;spacingRight=4;overflow=hidden;rotatable=0;points=[[0,0.5],[1,0.5]];portConstraint=eastwest;whiteSpace=wrap;html=1;" vertex="1" parent="5VEAs7Z4zmUbIyA-DY4z-25">
          <mxGeometry y="108" width="160" height="52" as="geometry" />
        </mxCell>
        <mxCell id="5VEAs7Z4zmUbIyA-DY4z-36" value="Main" style="swimlane;fontStyle=1;align=center;verticalAlign=top;childLayout=stackLayout;horizontal=1;startSize=26;horizontalStack=0;resizeParent=1;resizeParentMax=0;resizeLast=0;collapsible=1;marginBottom=0;whiteSpace=wrap;html=1;" vertex="1" parent="1">
          <mxGeometry x="1180" width="160" height="86" as="geometry" />
        </mxCell>
        <mxCell id="5VEAs7Z4zmUbIyA-DY4z-37" value="...." style="text;strokeColor=none;fillColor=none;align=left;verticalAlign=top;spacingLeft=4;spacingRight=4;overflow=hidden;rotatable=0;points=[[0,0.5],[1,0.5]];portConstraint=eastwest;whiteSpace=wrap;html=1;" vertex="1" parent="5VEAs7Z4zmUbIyA-DY4z-36">
          <mxGeometry y="26" width="160" height="26" as="geometry" />
        </mxCell>
        <mxCell id="5VEAs7Z4zmUbIyA-DY4z-38" value="" style="line;strokeWidth=1;fillColor=none;align=left;verticalAlign=middle;spacingTop=-1;spacingLeft=3;spacingRight=3;rotatable=0;labelPosition=right;points=[];portConstraint=eastwest;strokeColor=inherit;" vertex="1" parent="5VEAs7Z4zmUbIyA-DY4z-36">
          <mxGeometry y="52" width="160" height="8" as="geometry" />
        </mxCell>
        <mxCell id="5VEAs7Z4zmUbIyA-DY4z-39" value="- root()" style="text;strokeColor=none;fillColor=none;align=left;verticalAlign=top;spacingLeft=4;spacingRight=4;overflow=hidden;rotatable=0;points=[[0,0.5],[1,0.5]];portConstraint=eastwest;whiteSpace=wrap;html=1;" vertex="1" parent="5VEAs7Z4zmUbIyA-DY4z-36">
          <mxGeometry y="60" width="160" height="26" as="geometry" />
        </mxCell>
        <mxCell id="5VEAs7Z4zmUbIyA-DY4z-45" style="edgeStyle=orthogonalEdgeStyle;rounded=0;orthogonalLoop=1;jettySize=auto;html=1;endArrow=diamondThin;endFill=0;endSize=15;" edge="1" parent="1" source="5VEAs7Z4zmUbIyA-DY4z-40" target="5VEAs7Z4zmUbIyA-DY4z-20">
          <mxGeometry relative="1" as="geometry" />
        </mxCell>
        <mxCell id="5VEAs7Z4zmUbIyA-DY4z-40" value="AboutPage" style="swimlane;fontStyle=1;align=center;verticalAlign=top;childLayout=stackLayout;horizontal=1;startSize=26;horizontalStack=0;resizeParent=1;resizeParentMax=0;resizeLast=0;collapsible=1;marginBottom=0;whiteSpace=wrap;html=1;" vertex="1" parent="1">
          <mxGeometry x="760" y="320" width="160" height="104" as="geometry" />
        </mxCell>
        <mxCell id="5VEAs7Z4zmUbIyA-DY4z-41" value="- title: string&lt;div&gt;- description: string&lt;/div&gt;" style="text;strokeColor=none;fillColor=none;align=left;verticalAlign=top;spacingLeft=4;spacingRight=4;overflow=hidden;rotatable=0;points=[[0,0.5],[1,0.5]];portConstraint=eastwest;whiteSpace=wrap;html=1;" vertex="1" parent="5VEAs7Z4zmUbIyA-DY4z-40">
          <mxGeometry y="26" width="160" height="44" as="geometry" />
        </mxCell>
        <mxCell id="5VEAs7Z4zmUbIyA-DY4z-42" value="" style="line;strokeWidth=1;fillColor=none;align=left;verticalAlign=middle;spacingTop=-1;spacingLeft=3;spacingRight=3;rotatable=0;labelPosition=right;points=[];portConstraint=eastwest;strokeColor=inherit;" vertex="1" parent="5VEAs7Z4zmUbIyA-DY4z-40">
          <mxGeometry y="70" width="160" height="8" as="geometry" />
        </mxCell>
        <mxCell id="5VEAs7Z4zmUbIyA-DY4z-43" value="+ render(): JSX.element" style="text;strokeColor=none;fillColor=none;align=left;verticalAlign=top;spacingLeft=4;spacingRight=4;overflow=hidden;rotatable=0;points=[[0,0.5],[1,0.5]];portConstraint=eastwest;whiteSpace=wrap;html=1;" vertex="1" parent="5VEAs7Z4zmUbIyA-DY4z-40">
          <mxGeometry y="78" width="160" height="26" as="geometry" />
        </mxCell>
        <mxCell id="5VEAs7Z4zmUbIyA-DY4z-51" style="edgeStyle=orthogonalEdgeStyle;rounded=0;orthogonalLoop=1;jettySize=auto;html=1;endArrow=diamondThin;endFill=0;endSize=15;" edge="1" parent="1" source="5VEAs7Z4zmUbIyA-DY4z-47" target="5VEAs7Z4zmUbIyA-DY4z-36">
          <mxGeometry relative="1" as="geometry" />
        </mxCell>
        <mxCell id="5VEAs7Z4zmUbIyA-DY4z-47" value="NavBar" style="swimlane;fontStyle=1;align=center;verticalAlign=top;childLayout=stackLayout;horizontal=1;startSize=26;horizontalStack=0;resizeParent=1;resizeParentMax=0;resizeLast=0;collapsible=1;marginBottom=0;whiteSpace=wrap;html=1;" vertex="1" parent="1">
          <mxGeometry x="1180" y="230" width="160" height="86" as="geometry" />
        </mxCell>
        <mxCell id="5VEAs7Z4zmUbIyA-DY4z-48" value="...." style="text;strokeColor=none;fillColor=none;align=left;verticalAlign=top;spacingLeft=4;spacingRight=4;overflow=hidden;rotatable=0;points=[[0,0.5],[1,0.5]];portConstraint=eastwest;whiteSpace=wrap;html=1;" vertex="1" parent="5VEAs7Z4zmUbIyA-DY4z-47">
          <mxGeometry y="26" width="160" height="26" as="geometry" />
        </mxCell>
        <mxCell id="5VEAs7Z4zmUbIyA-DY4z-49" value="" style="line;strokeWidth=1;fillColor=none;align=left;verticalAlign=middle;spacingTop=-1;spacingLeft=3;spacingRight=3;rotatable=0;labelPosition=right;points=[];portConstraint=eastwest;strokeColor=inherit;" vertex="1" parent="5VEAs7Z4zmUbIyA-DY4z-47">
          <mxGeometry y="52" width="160" height="8" as="geometry" />
        </mxCell>
        <mxCell id="5VEAs7Z4zmUbIyA-DY4z-50" value="render() : JSX.element" style="text;strokeColor=none;fillColor=none;align=left;verticalAlign=top;spacingLeft=4;spacingRight=4;overflow=hidden;rotatable=0;points=[[0,0.5],[1,0.5]];portConstraint=eastwest;whiteSpace=wrap;html=1;" vertex="1" parent="5VEAs7Z4zmUbIyA-DY4z-47">
          <mxGeometry y="60" width="160" height="26" as="geometry" />
        </mxCell>
        <mxCell id="5VEAs7Z4zmUbIyA-DY4z-55" value="1" style="text;html=1;whiteSpace=wrap;strokeColor=none;fillColor=none;align=center;verticalAlign=middle;rounded=0;" vertex="1" parent="1">
          <mxGeometry x="730" y="550" width="60" height="30" as="geometry" />
        </mxCell>
        <mxCell id="5VEAs7Z4zmUbIyA-DY4z-56" value="1" style="text;html=1;whiteSpace=wrap;strokeColor=none;fillColor=none;align=center;verticalAlign=middle;rounded=0;" vertex="1" parent="1">
          <mxGeometry x="600" y="580" width="60" height="30" as="geometry" />
        </mxCell>
        <mxCell id="5VEAs7Z4zmUbIyA-DY4z-63" style="edgeStyle=orthogonalEdgeStyle;rounded=0;orthogonalLoop=1;jettySize=auto;html=1;endArrow=diamondThin;endFill=1;endSize=15;" edge="1" parent="1" source="5VEAs7Z4zmUbIyA-DY4z-57" target="5VEAs7Z4zmUbIyA-DY4z-5">
          <mxGeometry relative="1" as="geometry" />
        </mxCell>
        <mxCell id="5VEAs7Z4zmUbIyA-DY4z-57" value="tasks.JSON" style="swimlane;fontStyle=0;childLayout=stackLayout;horizontal=1;startSize=26;fillColor=none;horizontalStack=0;resizeParent=1;resizeParentMax=0;resizeLast=0;collapsible=1;marginBottom=0;whiteSpace=wrap;html=1;" vertex="1" parent="1">
          <mxGeometry x="470" y="830" width="140" height="120" as="geometry" />
        </mxCell>
        <mxCell id="5VEAs7Z4zmUbIyA-DY4z-58" value="+ id : number&lt;div&gt;+ title: string&lt;/div&gt;&lt;div&gt;+ description: string&lt;div&gt;+ deadline : Date&lt;/div&gt;&lt;div&gt;+ checked: boolean&lt;/div&gt;&lt;/div&gt;" style="text;strokeColor=none;fillColor=none;align=left;verticalAlign=top;spacingLeft=4;spacingRight=4;overflow=hidden;rotatable=0;points=[[0,0.5],[1,0.5]];portConstraint=eastwest;whiteSpace=wrap;html=1;" vertex="1" parent="5VEAs7Z4zmUbIyA-DY4z-57">
          <mxGeometry y="26" width="140" height="94" as="geometry" />
        </mxCell>
      </root>
    </mxGraphModel>
  </diagram>
</mxfile>
